<?xml version="1.0" encoding="utf-8"?>
<!-- Generator: Adobe Illustrator 25.2.1, SVG Export Plug-In . SVG Version: 6.00 Build 0)  -->
<svg version="1.1" id="Calque_1" xmlns="http://www.w3.org/2000/svg" xmlns:xlink="http://www.w3.org/1999/xlink" x="0px" y="0px"
	 viewBox="0 0 500 60" style="enable-background:new 0 0 500 60;" xml:space="preserve">
<style type="text/css">
	.st0{fill:#FFFFFF;}
</style>
<path d="M471.8,58.2H28.2C13,58.2,0.6,45.7,0.6,30.5v-1.7C0.6,13.7,13,1.3,28.2,1.3h443.6c15.2,0,27.6,12.4,27.6,27.6v1.7
	C499.4,45.7,487,58.2,471.8,58.2z"/>
<g>
	<path class="st0" d="M114.3,32.6c0,0,1.6,1.6,3.7,1.6c1.1,0,2.2-0.6,2.2-1.8c0-2.7-7-2.2-7-6.8c0-2.5,2.1-4.3,5-4.3
		s4.4,1.6,4.4,1.6l-1.2,2.2c0,0-1.4-1.3-3.3-1.3c-1.3,0-2.2,0.7-2.2,1.8c0,2.6,7,2,7,6.7c0,2.4-1.8,4.4-4.9,4.4c-3.3,0-5.1-2-5.1-2
		L114.3,32.6z"/>
	<path class="st0" d="M130.2,25.5c3.3,0,5.9,2.3,5.9,5.6s-2.6,5.6-5.9,5.6c-3.3,0-5.9-2.3-5.9-5.6C124.4,27.8,127,25.5,130.2,25.5z
		 M130.2,34.4c1.7,0,3.2-1.3,3.2-3.3s-1.4-3.3-3.2-3.3c-1.7,0-3.2,1.4-3.2,3.3C127.1,33.1,128.5,34.4,130.2,34.4z"/>
	<path class="st0" d="M138.1,25.7h2.7V32c0,1.3,0.3,2.2,1.7,2.2c1.9,0,3-1.7,3-3.6v-4.9h2.7v10.7h-2.6v-1.2c0-0.4,0-0.8,0-0.8l0,0
		c-0.5,1.1-1.9,2.2-3.7,2.2c-2.3,0-3.7-1.2-3.7-4.1L138.1,25.7L138.1,25.7z"/>
	<path class="st0" d="M151,25.7h2.6v1.8c0,0.4,0,0.8,0,0.8l0,0c0.5-1.5,1.8-2.7,3.4-2.7c0.3,0,0.5,0,0.5,0v2.6c0,0-0.3,0-0.6,0
		c-1.1,0-2.4,0.6-2.9,2.2c-0.2,0.5-0.2,1.1-0.2,1.7v4.2H151V25.7z"/>
	<path class="st0" d="M163.3,25.5c2.3,0,3.1,1.4,3.1,1.4l0,0c0,0,0-0.3,0-0.6v-4.7h2.7v14.9h-2.5v-0.9c0-0.4,0-0.7,0-0.7l0,0
		c0,0-0.9,1.8-3.3,1.8c-2.9,0-4.7-2.3-4.7-5.6C158.5,27.7,160.5,25.5,163.3,25.5z M163.8,34.4c1.4,0,2.7-1,2.7-3.4
		c0-1.7-0.9-3.3-2.7-3.3c-1.5,0-2.7,1.2-2.7,3.3C161.2,33.1,162.2,34.4,163.8,34.4z"/>
	<path class="st0" d="M182.2,25.5c3.3,0,5.9,2.3,5.9,5.6s-2.6,5.6-5.9,5.6c-3.3,0-5.9-2.3-5.9-5.6S178.9,25.5,182.2,25.5z
		 M182.2,34.4c1.7,0,3.2-1.3,3.2-3.3s-1.4-3.3-3.2-3.3c-1.7,0-3.2,1.4-3.2,3.3C179,33.1,180.4,34.4,182.2,34.4z"/>
	<path class="st0" d="M190,25.7h2.7V32c0,1.3,0.3,2.2,1.7,2.2c1.9,0,3-1.7,3-3.6v-4.9h2.7v10.7h-2.6v-1.2c0-0.4,0-0.8,0-0.8l0,0
		c-0.5,1.1-1.9,2.2-3.7,2.2c-2.3,0-3.7-1.2-3.7-4.1L190,25.7L190,25.7z"/>
	<path class="st0" d="M208,25.7h2.6V27c0,0.4,0,0.7,0,0.7l0,0c0.5-1,1.8-2.2,3.5-2.2c1.6,0,2.7,0.8,3.1,2.2l0,0
		c0.6-1.2,2-2.2,3.6-2.2c2.2,0,3.5,1.3,3.5,4.1v6.9h-2.7v-6.4c0-1.2-0.2-2.1-1.5-2.1c-1.4,0-2.3,1.1-2.6,2.4
		c-0.1,0.4-0.1,0.9-0.1,1.4v4.7h-2.7v-6.4c0-1.2-0.2-2.1-1.4-2.1c-1.4,0-2.3,1.1-2.6,2.5c-0.1,0.4-0.1,0.9-0.1,1.4v4.7H208V25.7z"/>
	<path class="st0" d="M232.5,29.7h0.4v-0.1c0-1.4-0.9-1.9-2.1-1.9c-1.5,0-2.9,1-2.9,1l-1-1.9c0,0,1.7-1.3,4.2-1.3
		c2.8,0,4.4,1.5,4.4,4.2v6.7h-2.4v-0.9c0-0.4,0-0.8,0-0.8l0,0c0,0-0.8,1.9-3.2,1.9c-1.9,0-3.6-1.2-3.6-3.3
		C226.2,30,230.8,29.7,232.5,29.7z M230.5,34.6c1.4,0,2.4-1.5,2.4-2.8v-0.3h-0.5c-1.4,0-3.6,0.2-3.6,1.7
		C228.9,33.9,229.4,34.6,230.5,34.6z"/>
	<path class="st0" d="M238.2,21.6h2.6v11.1c0,1.2,0.4,1.5,1.1,1.5c0.2,0,0.4,0,0.4,0v2.3c0,0-0.4,0.1-0.8,0.1
		c-1.5,0-3.3-0.4-3.3-3.4V21.6z"/>
	<path class="st0" d="M248.9,25.5c3.1,0,4.7,2.2,4.7,5.1c0,0.3-0.1,1-0.1,1h-7.4c0.2,1.9,1.6,2.8,3.2,2.8c1.7,0,3.1-1.2,3.1-1.2
		l1,1.9c0,0-1.6,1.5-4.3,1.5c-3.5,0-5.7-2.6-5.7-5.6C243.5,27.8,245.7,25.5,248.9,25.5z M251,29.8c0-1.4-0.9-2.2-2.1-2.2
		c-1.4,0-2.3,0.8-2.6,2.2H251z"/>
	<path class="st0" d="M255.8,25.7h2.6V27c0,0.4,0,0.7,0,0.7l0,0c0.5-0.9,1.6-2.2,3.8-2.2c2.4,0,3.7,1.2,3.7,4.1v6.9h-2.6v-6.3
		c0-1.3-0.3-2.2-1.7-2.2c-1.4,0-2.5,0.9-2.9,2.2c-0.1,0.4-0.2,0.9-0.2,1.4v4.9h-2.7L255.8,25.7L255.8,25.7z"/>
	<path class="st0" d="M269.1,28h-1.4v-2.1h1.4v-3.1h2.6v3.1h2.4V28h-2.4v4.1c0,1.8,1.4,2,2.1,2c0.3,0,0.5,0,0.5,0v2.3
		c0,0-0.3,0.1-0.8,0.1c-1.5,0-4.4-0.4-4.4-4L269.1,28L269.1,28z"/>
	<path class="st0" d="M281.2,25.5c3.1,0,4.7,2.2,4.7,5.1c0,0.3-0.1,1-0.1,1h-7.4c0.2,1.9,1.6,2.8,3.2,2.8c1.7,0,3.1-1.2,3.1-1.2
		l1,1.9c0,0-1.6,1.5-4.3,1.5c-3.5,0-5.7-2.6-5.7-5.6C275.8,27.8,278.1,25.5,281.2,25.5z M283.3,29.8c0-1.4-0.9-2.2-2.1-2.2
		c-1.4,0-2.3,0.8-2.6,2.2H283.3z"/>
	<path class="st0" d="M288.2,25.7h2.6V27c0,0.4,0,0.7,0,0.7l0,0c0.5-0.9,1.6-2.2,3.8-2.2c2.4,0,3.7,1.2,3.7,4.1v6.9h-2.6v-6.3
		c0-1.3-0.3-2.2-1.7-2.2c-1.4,0-2.5,0.9-2.9,2.2c-0.1,0.4-0.2,0.9-0.2,1.4v4.9h-2.7L288.2,25.7L288.2,25.7z"/>
	<path class="st0" d="M305.1,25.5c2.3,0,3.1,1.4,3.1,1.4l0,0c0,0,0-0.3,0-0.6v-4.7h2.7v14.9h-2.5v-0.9c0-0.4,0-0.7,0-0.7l0,0
		c0,0-0.9,1.8-3.3,1.8c-2.9,0-4.7-2.3-4.7-5.6C300.3,27.7,302.3,25.5,305.1,25.5z M305.6,34.4c1.4,0,2.7-1,2.7-3.4
		c0-1.7-0.9-3.3-2.7-3.3c-1.5,0-2.7,1.2-2.7,3.3S304,34.4,305.6,34.4z"/>
	<path class="st0" d="M319.2,29.7h0.4v-0.1c0-1.4-0.9-1.9-2.1-1.9c-1.5,0-2.9,1-2.9,1l-1-1.9c0,0,1.7-1.3,4.2-1.3
		c2.8,0,4.4,1.5,4.4,4.2v6.7h-2.5v-0.9c0-0.4,0-0.8,0-0.8l0,0c0,0-0.8,1.9-3.2,1.9c-1.9,0-3.6-1.2-3.6-3.3
		C312.9,30,317.5,29.7,319.2,29.7z M317.2,34.6c1.4,0,2.4-1.5,2.4-2.8v-0.3h-0.5c-1.4,0-3.6,0.2-3.6,1.7
		C315.6,33.9,316.1,34.6,317.2,34.6z"/>
	<path class="st0" d="M325,25.7h2.6V27c0,0.4,0,0.7,0,0.7l0,0c0.5-0.9,1.6-2.2,3.8-2.2c2.4,0,3.7,1.2,3.7,4.1v6.9h-2.6v-6.3
		c0-1.3-0.3-2.2-1.7-2.2c-1.4,0-2.5,0.9-2.9,2.2c-0.1,0.4-0.2,0.9-0.2,1.4v4.9H325V25.7z"/>
	<path class="st0" d="M338.3,28h-1.4v-2.1h1.4v-3.1h2.6v3.1h2.4V28h-2.4v4.1c0,1.8,1.4,2,2.1,2c0.3,0,0.5,0,0.5,0v2.3
		c0,0-0.3,0.1-0.8,0.1c-1.5,0-4.4-0.4-4.4-4L338.3,28L338.3,28z"/>
	<path class="st0" d="M352.1,31.1c0-3,3.5-3.5,3.5-5.7c0-1-0.9-1.7-2-1.7c-1.2,0-2.2,0.9-2.2,0.9l-1.5-1.8c0,0,1.4-1.5,3.9-1.5
		c2.4,0,4.6,1.5,4.6,3.9c0,3.5-3.6,3.9-3.6,6.1v0.8h-2.6L352.1,31.1L352.1,31.1z M352.1,33.9h2.6v2.5h-2.6V33.9z"/>
	<path class="st0" d="M373.1,21.3c3.6,0,5.5,2,5.5,2l-1.3,2c0,0-1.7-1.6-4.1-1.6c-3.1,0-5,2.3-5,5.1s1.9,5.3,5,5.3
		c2.6,0,4.3-1.9,4.3-1.9l1.4,1.9c0,0-2.1,2.4-5.8,2.4c-4.5,0-7.7-3.4-7.7-7.7C365.5,24.6,368.7,21.3,373.1,21.3z"/>
	<path class="st0" d="M380.9,21.6h2.6v11.1c0,1.2,0.4,1.5,1.1,1.5c0.2,0,0.4,0,0.4,0v2.3c0,0-0.4,0.1-0.8,0.1
		c-1.5,0-3.3-0.4-3.3-3.4L380.9,21.6L380.9,21.6z"/>
	<path class="st0" d="M387,21.6h2.6V24H387V21.6z M387,25.7h2.7v10.7H387V25.7z"/>
	<path class="st0" d="M396.7,25.5c2.3,0,3.2,1.5,3.2,1.5l0,0c0,0,0-0.3,0-0.7v-0.6h2.5v14.9h-2.7V36c0-0.5,0-0.9,0-0.9l0,0
		c0,0-0.9,1.6-3.2,1.6c-2.9,0-4.7-2.3-4.7-5.6C391.9,27.7,393.9,25.5,396.7,25.5z M397.2,34.4c1.4,0,2.7-1,2.7-3.4
		c0-1.7-0.9-3.3-2.7-3.3c-1.5,0-2.7,1.2-2.7,3.3S395.6,34.4,397.2,34.4z"/>
	<path class="st0" d="M405.2,25.7h2.7V32c0,1.3,0.3,2.2,1.7,2.2c1.9,0,3-1.7,3-3.6v-4.9h2.7v10.7h-2.6v-1.2c0-0.4,0-0.8,0-0.8l0,0
		c-0.5,1.1-1.9,2.2-3.7,2.2c-2.3,0-3.7-1.2-3.7-4.1v-6.8H405.2z"/>
	<path class="st0" d="M422.8,25.5c3.1,0,4.7,2.2,4.7,5.1c0,0.3-0.1,1-0.1,1H420c0.2,1.9,1.6,2.8,3.2,2.8c1.7,0,3.1-1.2,3.1-1.2
		l1,1.9c0,0-1.6,1.5-4.3,1.5c-3.5,0-5.7-2.6-5.7-5.6C417.4,27.8,419.6,25.5,422.8,25.5z M424.9,29.8c0-1.4-0.9-2.2-2.1-2.2
		c-1.4,0-2.3,0.8-2.6,2.2H424.9z"/>
	<path class="st0" d="M429,35l4.8-6c0.5-0.6,0.9-1,0.9-1l0,0c0,0-0.3,0-1,0h-4.5v-2.3h9.1v1.4l-4.8,6c-0.5,0.6-0.9,1-0.9,1l0,0
		c0,0,0.3-0.1,1-0.1h4.9v2.3H429V35z"/>
	<path class="st0" d="M445.8,21.6h2.6V24h-2.6V21.6z M445.8,25.7h2.7v10.7h-2.7V25.7z"/>
	<path class="st0" d="M456.4,25.5c2.8,0,4.1,1.6,4.1,1.6l-1.2,1.8c0,0-1.1-1.2-2.8-1.2c-2,0-3.2,1.5-3.2,3.3c0,1.8,1.3,3.3,3.3,3.3
		c1.8,0,3.1-1.4,3.1-1.4l1,1.9c0,0-1.5,1.7-4.4,1.7c-3.5,0-5.8-2.5-5.8-5.6C450.6,28,452.9,25.5,456.4,25.5z"/>
	<path class="st0" d="M462.8,21.6h2.6V24h-2.6V21.6z M462.8,25.7h2.7v10.7h-2.7V25.7z"/>
</g>
<g>
	<path class="st0" d="M78.7,49.3c-1.1-1.2,0-2.1,0.6-2.4c1.4-0.9,2.5-1.5,3.9-2.2c0.6-0.3,1.2-0.6,0.8-1.4c-0.4-0.8-1-0.5-1.6-0.3
		c-2.8,0.9-5.7,1.8-8.5,2.7c-0.7,0.2-1.4,0.2-1.8-0.6c-0.3-0.8,0.2-1.3,0.9-1.6c2.3-0.9,4.7-1.9,7.1-2.8c0.3-0.1,0.8-0.4,0.8-0.8
		c-0.2-0.8-0.8-0.6-1.2-0.6c-2.7,0.3-5.3,0.7-8,1.1c-1,0.1-2.4,0.6-2.7-0.8c-0.2-1,0.4-1.4,1.3-1.6c2.9-0.6,5.8-1.1,8.7-1.7
		c0.3-0.1,0.7-0.2,1-0.4c0.5-0.5,0.1-1.1-0.7-1.2c-1.8-0.2-3.7-0.2-5.5-0.4c-0.9-0.1-1.8-0.2-2.7-0.2c-0.9-0.1-1.4-0.6-1.3-1.4
		c0.1-0.9,0.7-1.1,1.5-1.1c3.1,0,6.1,0,9.2,0c0.9,0,1.7-0.2,2.5-0.3c0.2,0,0.6-0.3,0.6-0.5c0-0.2-0.2-0.5-0.4-0.6
		c-1.3-0.8-2.6-1.6-4-2.4c-0.8-0.5-1.4-1.1-0.9-2.1c0.5-1,1.3-1.1,2.3-0.7c3.7,1.6,7.3,3.2,10.9,4.9c2.3,1.1,3.9,2.9,4.3,5.5
		c0.1,0.6,0.2,1.3,0,2c-0.5,3.3-2.4,5.4-5.3,6.8c-3.6,1.7-7.1,3.5-10.6,5.3C79.2,49.7,78.8,49.4,78.7,49.3z"/>
	<path class="st0" d="M80.4,30.5c-2-0.1-4.1-0.2-6.1-0.4c-0.7-0.1-1.4-0.5-1.9-1c-1.7-1.7-3.9-3.1-5.2-5c-0.9-1.4,0.8-2.5,1.8-1.8
		c0.5,0.4,1,0.8,1.5,1.3c0.7,0.7,1.4,1.5,2.2,2.1C72.9,26,73,26,73.4,26c0.1,0,1-0.5,0.4-1.3c-1.7-2.6-3.9-4.9-5.7-7.5
		c-0.5-0.7-0.4-1.4,0.2-2c0.7-0.6,1.3-0.2,1.8,0.4c1.5,1.9,3,3.8,4.6,5.6c0.3,0.4,1,0.9,1.3,0.8c0.9-0.4,0.5-1.2,0.1-1.8
		c-1.4-2.6-3.3-5.1-4.3-8c-0.1-0.5-0.2-1.3,0.2-1.6c0.6-0.6,1.6,0,1.9,0.5c0.9,1.4,1.8,2.8,2.7,4.3c0.7,1.2,1.4,2.5,2.3,3.6
		c0.2,0.3,0.5,0.6,1.2,0.3c0,0,0,0,0,0c0.1-0.1,0.4-0.4,0.3-0.8c-0.7-2.4-1.6-5.1-2.4-7.5c-0.3-0.9-0.2-1.7,0.8-1.9
		c1-0.3,1.6,0.2,1.9,1.2c1.1,3.4,2.1,6.8,3.2,10.2c0.1,0.3,0.2,0.4,0.3,0.7c0.2,0.3,0.3,0.8,1,0.7c0.4,0,1-0.4,1.1-0.9
		c0.3-1.5,0.4-3.1,0.7-4.6c0.1-0.9,0.5-1.5,1.5-1.4c1.4,0.1,1.5,1.4,1.1,2.8c-0.6,2.6-0.6,5.3-0.3,7.9c0.2,1.6-1.7,1-2.6,0.7
		c-2.8-1.1-3.7-1.8-6.7-2.7c-2.8-0.9-5,3.2-2.7,5.1C77.5,28.5,81,30.5,80.4,30.5z"/>
</g>
<g>
	<path class="st0" d="M52.9,52.1L41.6,40.8c-2.2,3.6-3.3,8.8-9.2,8.8c-4.1,0-7.1-2.5-7.1-6c0-1,0.2-1.5,0.9-1.5
		c0.7,0,0.7,0.6,0.8,1.3c0.2,2.4,1.8,4.5,5.3,4.5c5.3,0,5.5-4.7,8-8.4l-5.4-5.4c-2.3,0.1-3,1-3.9,1c-0.6,0-0.8-0.3-0.8-0.7
		c0-0.3,0.2-0.6,0.7-0.9c0.8-0.5,1.7-0.7,2.6-0.9L20,19.2l2.1-2.1l15.2,15.2c3.4-0.3,5.7-2.6,5.7-6.1c0-3.3-2-5.5-5-5.5
		c-1.5,0-3.5,0.6-4.6,1.7c0.1,0.9,0.8,1.5,1.8,1.5c1.1,0,1.3-0.7,2.6-0.7c1.8,0,3,1.4,3,3.1c0,1.9-1.5,3.3-3.2,3.3
		c-1.1,0-1.3-0.6-1.4-1.7c-0.1-1.1-1-1.7-2.4-2.5c-1.1-0.7-2.2-1.7-2.2-4.2c0-4.6,3.8-7.2,8.1-7.2c4.5,0,9.1,2.8,9.1,9
		c0,1.9-0.5,3.9-0.9,5c-0.3,0.8-0.6,0.9-0.9,0.9c-0.7,0-0.9-0.6-0.6-1.5c0.5-1.4,0.7-2.2,0.7-3.7c0-6.2-3.9-8.1-7.3-8.1
		c-3.4,0-6.5,2-6.5,4.9c1.5-1,3.4-1.6,5-1.6c3.2,0,6.5,2.4,6.5,7c0,3.9-2.3,6.9-5.9,7.7l3.5,3.5l3.2-2.8c4.4-3.8,6.5-7.2,6.5-12
		c0-7.3-4.8-12.2-12.1-12.2c-6,0-8.4,3.4-10.5,6.3c-0.2,0.2-0.4,0.5-0.8,0.5c-0.5,0-0.7-0.4-0.7-0.6c0-0.3,0.3-1,0.7-1.5
		c1.9-3.3,5.8-6.2,11.6-6.2c8,0,13.6,5.7,13.6,14c0,6.1-3,9.6-6.7,12.8l-3.5,3L55,50.1L52.9,52.1z"/>
</g>
</svg>
